<mxfile host="app.diagrams.net" agent="Mozilla/5.0 (Windows NT 10.0; Win64; x64) AppleWebKit/537.36 (KHTML, like Gecko) Chrome/129.0.0.0 Safari/537.36" version="24.7.17">
  <diagram name="Página-1" id="oNjTLTUZ8z2YCRCSjB2H">
    <mxGraphModel dx="1050" dy="530" grid="1" gridSize="10" guides="1" tooltips="1" connect="1" arrows="1" fold="1" page="1" pageScale="1" pageWidth="827" pageHeight="1169" math="0" shadow="0">
      <root>
        <mxCell id="0" />
        <mxCell id="1" parent="0" />
        <mxCell id="ERKmnWNWB8FSzU3ph-kF-1" value="«component»&lt;br&gt;&lt;b&gt;Cliente&lt;/b&gt;" style="html=1;dropTarget=0;whiteSpace=wrap;fillColor=#cdeb8b;strokeColor=#36393d;shadow=1;" vertex="1" parent="1">
          <mxGeometry x="270" y="60" width="160" height="50" as="geometry" />
        </mxCell>
        <mxCell id="ERKmnWNWB8FSzU3ph-kF-2" value="" style="shape=module;jettyWidth=8;jettyHeight=4;fillColor=#cdeb8b;strokeColor=#36393d;" vertex="1" parent="ERKmnWNWB8FSzU3ph-kF-1">
          <mxGeometry x="1" width="20" height="20" relative="1" as="geometry">
            <mxPoint x="-27" y="7" as="offset" />
          </mxGeometry>
        </mxCell>
        <mxCell id="ERKmnWNWB8FSzU3ph-kF-3" value="«component»&lt;br&gt;&lt;b&gt;Servicio de Cuenta&lt;/b&gt;" style="html=1;dropTarget=0;whiteSpace=wrap;fillColor=#cdeb8b;strokeColor=#36393d;shadow=1;" vertex="1" parent="1">
          <mxGeometry x="90" y="220" width="160" height="50" as="geometry" />
        </mxCell>
        <mxCell id="ERKmnWNWB8FSzU3ph-kF-4" value="" style="shape=module;jettyWidth=8;jettyHeight=4;fillColor=#cdeb8b;strokeColor=#36393d;" vertex="1" parent="ERKmnWNWB8FSzU3ph-kF-3">
          <mxGeometry x="1" width="20" height="20" relative="1" as="geometry">
            <mxPoint x="-27" y="7" as="offset" />
          </mxGeometry>
        </mxCell>
        <mxCell id="ERKmnWNWB8FSzU3ph-kF-5" value="«component»&lt;br&gt;&lt;b&gt;Servicio de Transacciones&lt;/b&gt;" style="html=1;dropTarget=0;whiteSpace=wrap;fillColor=#cdeb8b;strokeColor=#36393d;shadow=1;" vertex="1" parent="1">
          <mxGeometry x="450" y="220" width="160" height="50" as="geometry" />
        </mxCell>
        <mxCell id="ERKmnWNWB8FSzU3ph-kF-6" value="" style="shape=module;jettyWidth=8;jettyHeight=4;fillColor=#cdeb8b;strokeColor=#36393d;" vertex="1" parent="ERKmnWNWB8FSzU3ph-kF-5">
          <mxGeometry x="1" width="20" height="20" relative="1" as="geometry">
            <mxPoint x="-27" y="7" as="offset" />
          </mxGeometry>
        </mxCell>
        <mxCell id="ERKmnWNWB8FSzU3ph-kF-7" value="«component»&lt;br&gt;&lt;b&gt;BBDD Cuentas&lt;/b&gt;" style="html=1;dropTarget=0;whiteSpace=wrap;fillColor=#cdeb8b;strokeColor=#36393d;shadow=1;" vertex="1" parent="1">
          <mxGeometry x="90" y="380" width="160" height="50" as="geometry" />
        </mxCell>
        <mxCell id="ERKmnWNWB8FSzU3ph-kF-8" value="" style="shape=module;jettyWidth=8;jettyHeight=4;fillColor=#cdeb8b;strokeColor=#36393d;" vertex="1" parent="ERKmnWNWB8FSzU3ph-kF-7">
          <mxGeometry x="1" width="20" height="20" relative="1" as="geometry">
            <mxPoint x="-27" y="7" as="offset" />
          </mxGeometry>
        </mxCell>
        <mxCell id="ERKmnWNWB8FSzU3ph-kF-9" value="«component»&lt;br&gt;&lt;b&gt;BBDD Transacciones&lt;/b&gt;" style="html=1;dropTarget=0;whiteSpace=wrap;fillColor=#cdeb8b;strokeColor=#36393d;shadow=1;" vertex="1" parent="1">
          <mxGeometry x="450" y="380" width="160" height="50" as="geometry" />
        </mxCell>
        <mxCell id="ERKmnWNWB8FSzU3ph-kF-10" value="" style="shape=module;jettyWidth=8;jettyHeight=4;fillColor=#cdeb8b;strokeColor=#36393d;" vertex="1" parent="ERKmnWNWB8FSzU3ph-kF-9">
          <mxGeometry x="1" width="20" height="20" relative="1" as="geometry">
            <mxPoint x="-27" y="7" as="offset" />
          </mxGeometry>
        </mxCell>
        <mxCell id="ERKmnWNWB8FSzU3ph-kF-11" value="" style="endArrow=classic;html=1;rounded=0;entryX=0.5;entryY=0;entryDx=0;entryDy=0;exitX=0.25;exitY=1;exitDx=0;exitDy=0;" edge="1" parent="1" source="ERKmnWNWB8FSzU3ph-kF-1" target="ERKmnWNWB8FSzU3ph-kF-3">
          <mxGeometry width="50" height="50" relative="1" as="geometry">
            <mxPoint x="390" y="300" as="sourcePoint" />
            <mxPoint x="440" y="250" as="targetPoint" />
          </mxGeometry>
        </mxCell>
        <mxCell id="ERKmnWNWB8FSzU3ph-kF-12" value="" style="endArrow=classic;html=1;rounded=0;entryX=0.5;entryY=0;entryDx=0;entryDy=0;exitX=0.75;exitY=1;exitDx=0;exitDy=0;" edge="1" parent="1" source="ERKmnWNWB8FSzU3ph-kF-1" target="ERKmnWNWB8FSzU3ph-kF-5">
          <mxGeometry width="50" height="50" relative="1" as="geometry">
            <mxPoint x="320" y="120" as="sourcePoint" />
            <mxPoint x="180" y="230" as="targetPoint" />
          </mxGeometry>
        </mxCell>
        <mxCell id="ERKmnWNWB8FSzU3ph-kF-13" value="" style="endArrow=classic;html=1;rounded=0;entryX=0.5;entryY=0;entryDx=0;entryDy=0;exitX=0.5;exitY=1;exitDx=0;exitDy=0;" edge="1" parent="1" source="ERKmnWNWB8FSzU3ph-kF-3" target="ERKmnWNWB8FSzU3ph-kF-7">
          <mxGeometry width="50" height="50" relative="1" as="geometry">
            <mxPoint x="330" y="130" as="sourcePoint" />
            <mxPoint x="190" y="240" as="targetPoint" />
          </mxGeometry>
        </mxCell>
        <mxCell id="ERKmnWNWB8FSzU3ph-kF-14" value="" style="endArrow=classic;html=1;rounded=0;entryX=0.5;entryY=0;entryDx=0;entryDy=0;exitX=0.5;exitY=1;exitDx=0;exitDy=0;" edge="1" parent="1">
          <mxGeometry width="50" height="50" relative="1" as="geometry">
            <mxPoint x="529.5" y="270" as="sourcePoint" />
            <mxPoint x="529.5" y="380" as="targetPoint" />
          </mxGeometry>
        </mxCell>
      </root>
    </mxGraphModel>
  </diagram>
</mxfile>
